<?xml version="1.0" encoding="utf-8"?>
<!-- Generator: Adobe Illustrator 27.9.0, SVG Export Plug-In . SVG Version: 6.00 Build 0)  -->
<svg version="1.1" id="Layer_1" xmlns="http://www.w3.org/2000/svg" xmlns:xlink="http://www.w3.org/1999/xlink" x="0px" y="0px"
	 viewBox="0 0 60 60" style="enable-background:new 0 0 60 60;" xml:space="preserve">
<style type="text/css">
	.st0{fill-rule:evenodd;clip-rule:evenodd;fill:#FFFFFF;}
</style>
<g>
	<path class="st0" d="M54.5,26.3c-4-5.1-13.8-13.6-24.5-13.6S9.5,21.2,5.4,26.3C4.5,27.5,4,28.7,4,30s0.5,2.5,1.4,3.7
		c4,5.1,13.8,13.6,24.6,13.6s20.5-8.5,24.6-13.6c0.9-1.2,1.4-2.4,1.5-3.7C56,28.7,55.5,27.5,54.5,26.3z M30,40.8
		c-6,0-10.8-4.9-10.8-10.8c0-6,4.9-10.8,10.8-10.8c6,0,10.8,4.9,10.8,10.8C40.8,36,36,40.8,30,40.8z"/>
	<circle class="st0" cx="30" cy="30" r="5.7"/>
</g>
</svg>
