<?xml version="1.0" encoding="utf-8"?>
<!-- Generator: Adobe Illustrator 27.9.0, SVG Export Plug-In . SVG Version: 6.00 Build 0)  -->
<svg version="1.1" id="Layer_1" xmlns="http://www.w3.org/2000/svg" xmlns:xlink="http://www.w3.org/1999/xlink" x="0px" y="0px"
	 viewBox="0 0 60 60" style="enable-background:new 0 0 60 60;" xml:space="preserve">
<style type="text/css">
	.st0{fill-rule:evenodd;clip-rule:evenodd;fill:#FFFFFF;}
</style>
<path class="st0" d="M23.5,30c0,3.6,2.9,6.5,6.5,6.5c3.6,0,6.5-2.9,6.5-6.5v-0.1c-0.7,0.7-1.6,1.1-2.7,1.1c-2.1,0-3.8-1.7-3.8-3.8
	c0-1.5,0.9-2.8,2.2-3.4c-0.7-0.2-1.4-0.4-2.2-0.4C26.4,23.5,23.5,26.4,23.5,30z M54.6,26.3c-4-5.1-13.8-13.6-24.5-13.6
	c-10.7,0-20.5,8.5-24.6,13.6C4.5,27.5,4,28.7,4,30c0,1.3,0.5,2.5,1.4,3.7c4,5.1,13.8,13.6,24.6,13.6s20.5-8.5,24.6-13.6
	c0.9-1.2,1.4-2.4,1.5-3.7C56,28.7,55.5,27.5,54.6,26.3z M30,40.8c-6,0-10.8-4.9-10.8-10.8c0-6,4.9-10.8,10.8-10.8
	c6,0,10.8,4.9,10.8,10.8C40.8,36,36,40.8,30,40.8z"/>
</svg>
