<?xml version="1.0" encoding="utf-8"?>
<!-- Generator: Adobe Illustrator 27.9.0, SVG Export Plug-In . SVG Version: 6.00 Build 0)  -->
<svg version="1.1" id="_015_HEALTH" xmlns="http://www.w3.org/2000/svg" xmlns:xlink="http://www.w3.org/1999/xlink" x="0px"
	 y="0px" viewBox="0 0 60 60" style="enable-background:new 0 0 60 60;" xml:space="preserve">
<style type="text/css">
	.st0{fill:#FFFFFF;}
</style>
<path class="st0" d="M56.9,18.3c-0.1-0.6-0.5-1.1-1.1-1.5c-1.1-0.6-2.4-0.3-3.2,0.7c-1.8,2.6-4.1,4.9-6.7,6.7
	c-6.1,4.3-13.4,5.9-20.8,4.6c-7.3-1.3-13.7-5.3-18-11.4c-0.7-1-2.1-1.3-3.1-0.7L4,16.9c-1.1,0.8-1.3,2.2-0.6,3.3
	c2.6,3.7,5.9,6.8,9.7,9.1l-3.3,6.9c-0.3,0.6-0.3,1.2-0.1,1.8c0.2,0.6,0.6,1.1,1.2,1.4c0.3,0.2,0.7,0.2,1,0.2c0.3,0,0.5,0,0.8-0.1
	c0.6-0.2,1.1-0.6,1.4-1.2l3.3-6.8c3.2,1.4,6.7,2.2,10.3,2.5v7.3c0,1.3,1.1,2.4,2.4,2.4s2.4-1.1,2.4-2.4v-7.3
	c3.6-0.3,7.1-1.1,10.3-2.5l3.3,6.8c0.3,0.6,0.8,1,1.3,1.2c0.3,0.1,0.5,0.1,0.8,0.1c0.4,0,0.7-0.1,1-0.2l0,0c1.2-0.6,1.7-2,1.1-3.2
	l-3.3-6.9c3.8-2.3,7.1-5.4,9.7-9.1l0.1-0.1C57,19.5,57.1,18.9,56.9,18.3z"/>
</svg>
