<?xml version="1.0" encoding="utf-8"?>
<!-- Generator: Adobe Illustrator 27.9.0, SVG Export Plug-In . SVG Version: 6.00 Build 0)  -->
<svg version="1.1" id="_015_HEALTH" xmlns="http://www.w3.org/2000/svg" xmlns:xlink="http://www.w3.org/1999/xlink" x="0px"
	 y="0px" viewBox="0 0 60 60" style="enable-background:new 0 0 60 60;" xml:space="preserve">
<style type="text/css">
	.st0{fill:#FFFFFF;}
</style>
<path class="st0" d="M55.4,23.1c-0.9-1-2.4-1.1-3.5-0.2c-4.8,4.2-13,6.7-21.9,6.7S12.9,27,8.1,22.8c-1-0.9-2.6-0.8-3.5,0.2
	c-0.9,1-0.8,2.6,0.2,3.5c1.2,1.1,2.6,2,4.2,2.9l-1.8,5c-0.1,0.3-0.1,0.5-0.1,0.8c0,1.4,1.1,2.4,2.4,2.5c1,0,2-0.7,2.3-1.6l1.6-4.5
	c1.5,0.6,3,1.1,4.6,1.5l-0.9,5.1c0,0,0,0,0,0c-0.2,1.3,0.7,2.6,2,2.8c0.1,0,0.3,0,0.4,0c1.2,0,2.2-0.9,2.4-2l0.9-5
	c1.5,0.2,3.1,0.3,4.7,0.4v5c0,1.4,1.1,2.4,2.4,2.4s2.4-1.1,2.4-2.4v-5c1.6-0.1,3.2-0.2,4.7-0.4l0.9,5c0.2,1.2,1.2,2,2.4,2
	c0.1,0,0.3,0,0.4,0c0,0,0,0,0,0c1.3-0.2,2.2-1.5,2-2.8L41.9,33c1.6-0.4,3.2-0.9,4.6-1.5l1.6,4.5c0.3,1,1.3,1.6,2.3,1.6v0
	c0.3,0,0.6,0,0.8-0.1c1.3-0.5,1.9-1.9,1.5-3.1l-1.8-5c1.5-0.9,3-1.8,4.2-2.9C56.2,25.6,56.3,24.1,55.4,23.1z"/>
</svg>
