<?xml version="1.0" encoding="utf-8"?>
<!-- Generator: Adobe Illustrator 27.9.0, SVG Export Plug-In . SVG Version: 6.00 Build 0)  -->
<svg version="1.1" id="圖層_1" xmlns="http://www.w3.org/2000/svg" xmlns:xlink="http://www.w3.org/1999/xlink" x="0px" y="0px"
	 viewBox="0 0 18 18" style="enable-background:new 0 0 18 18;" xml:space="preserve">
<style type="text/css">
	.st0{fill:#FFFFFF;}
</style>
<g>
	<path class="st0" d="M0,15.7h18V2.3H0V15.7z M7.9,3.9c0.5,0,1,0.4,1,1s-0.4,1-1,1s-1-0.4-1-1S7.4,3.9,7.9,3.9z M5.4,3.9
		c0.5,0,1,0.4,1,1s-0.4,1-1,1s-1-0.4-1-1S4.9,3.9,5.4,3.9z M2.9,3.9c0.5,0,1,0.4,1,1s-0.4,1-1,1s-1-0.4-1-1S2.4,3.9,2.9,3.9z
		 M1.2,7.4h15.7v7.2H1.2V7.4z"/>
</g>
</svg>
