<?xml version="1.0" encoding="utf-8"?>
<!-- Generator: Adobe Illustrator 27.9.0, SVG Export Plug-In . SVG Version: 6.00 Build 0)  -->
<svg version="1.1" id="圖層_1" xmlns="http://www.w3.org/2000/svg" xmlns:xlink="http://www.w3.org/1999/xlink" x="0px" y="0px"
	 viewBox="0 0 18 18" style="enable-background:new 0 0 18 18;" xml:space="preserve">
<style type="text/css">
	.st0{fill:#FFFFFF;}
</style>
<g>
	<path class="st0" d="M18,6.5c0,1.6-1.1,2.9-2.7,3.2v7.2h-1.3V9.8c-1.8-0.4-3-2.1-2.6-3.9c0.3-1.3,1.3-2.3,2.6-2.6V1h1.3v2.2
		C16.9,3.6,18,5,18,6.5z M9.6,8.8V1H8.4v7.8c-1.8,0.4-3,2.1-2.6,3.9C6,14,7.1,15.1,8.4,15.3V17h1.3v-1.6c1.8-0.4,3-2.1,2.6-3.9
		C11.9,10.1,10.9,9.1,9.6,8.8z M3.9,3.3V1H2.7v2.2c-1.8,0.4-3,2.1-2.6,3.9c0.3,1.3,1.3,2.3,2.6,2.6v7.2h1.3V9.8
		c1.8-0.3,3-2.1,2.6-3.9C6.3,4.6,5.2,3.6,3.9,3.3z"/>
</g>
</svg>
