<?xml version="1.0" encoding="utf-8"?>
<!-- Generator: Adobe Illustrator 27.9.0, SVG Export Plug-In . SVG Version: 6.00 Build 0)  -->
<svg version="1.1" id="圖層_1" xmlns="http://www.w3.org/2000/svg" xmlns:xlink="http://www.w3.org/1999/xlink" x="0px" y="0px"
	 viewBox="0 0 18 18" style="enable-background:new 0 0 18 18;" xml:space="preserve">
<style type="text/css">
	.st0{fill:#FFFFFF;}
</style>
<g>
	<path class="st0" d="M1.4,10.1c0-1.7,0.7-3.4,1.9-4.6c1.2-1.2,2.9-1.9,4.6-1.9c0,0,0,0,0,0c2.6,0,5,1.6,6,4l0.1,0.1l1.3-0.5
		l-0.1-0.1c-1-2.5-3.4-4.3-6-4.8V1.4h0.4c0.7,0,1.2-0.6,1.2-1.2V0L6.4,0l0,0H5v0.1c0,0.7,0.6,1.2,1.2,1.2h0.4v0.9
		c-2,0.3-3.8,1.4-5.1,3.1c-1.2,1.7-1.8,3.8-1.4,5.9C0.7,15.2,4,18,7.9,18L8,18v-1.4H7.9C4.3,16.6,1.4,13.7,1.4,10.1z"/>
	<path class="st0" d="M8.6,9.8V6.1H7.2v4c0,0.2,0.1,0.4,0.2,0.5l1.8,1.8l1-1L8.6,9.8z"/>
	<path class="st0" d="M17.4,15.1v-1.7c0-1.7-1.2-3.1-2.8-3.4V9.4h-1.4V10c-1.6,0.3-2.8,1.7-2.8,3.4v1.7c-0.4,0.2-0.6,0.6-0.6,1.1
		l0,0.1l1.1-0.1l0,0.1c0,0,0,0,0,0h1.2c0.2,0.4,0.5,0.7,0.9,0.9c0.2,0.1,0.5,0.2,0.8,0.2c0.2,0,0.4,0,0.6-0.1c0.5-0.2,0.8-0.5,1-1
		H18l0-0.1C18,15.8,17.8,15.4,17.4,15.1z M16,13.4V15h-4.2v-1.5c0-1.1,0.9-2.1,2.1-2.1S16,12.3,16,13.4z"/>
</g>
</svg>
