<?xml version="1.0" encoding="utf-8"?>
<!-- Generator: Adobe Illustrator 27.9.0, SVG Export Plug-In . SVG Version: 6.00 Build 0)  -->
<svg version="1.1" id="圖層_1" xmlns="http://www.w3.org/2000/svg" xmlns:xlink="http://www.w3.org/1999/xlink" x="0px" y="0px"
	 viewBox="0 0 18 18" style="enable-background:new 0 0 18 18;" xml:space="preserve">
<style type="text/css">
	.st0{fill:#FFFFFF;}
</style>
<g transform="translate(0,-270.54165)">
	<g transform="matrix(0.33086845,0,0,-0.33086845,-22.109586,487.50717)">
		<g transform="matrix(1.0662176,0,0,1.0662176,-521.86252,-40.774361)">
			<g>
				<path class="st0" d="M585.8,627.8c0-4.4-3.7-8-8.2-8c-4.5,0-8.2,3.6-8.2,8c0,4.4,3.7,8,8.2,8
					C582.2,635.8,585.8,632.2,585.8,627.8 M596.1,633.5l-1.3,3.1c0,0,3,6.8,2.7,7l-4,3.9c-0.3,0.3-7-2.8-7-2.8l-3.1,1.3
					c0,0-2.8,6.9-3.1,6.9h-5.6c-0.4,0-2.9-6.9-2.9-6.9l-3.1-1.3c0,0-6.9,2.9-7.2,2.7l-4-3.9c-0.3-0.3,2.9-6.9,2.9-6.9l-1.3-3.1
					c0,0-7-2.7-7-3.1v-5.5c0-0.4,7-2.9,7-2.9l1.3-3.1c0,0-3-6.8-2.7-7l4-3.9c0.3-0.3,7,2.8,7,2.8l3.1-1.3c0,0,2.8-6.8,3.1-6.8h5.6
					c0.4,0,2.9,6.9,2.9,6.9l3.1,1.3c0,0,6.9-2.9,7.2-2.7l4,3.9c0.3,0.3-2.9,6.9-2.9,6.9l1.3,3.1c0,0,7,2.7,7,3.1v5.5
					C603.2,631,596.1,633.5,596.1,633.5"/>
			</g>
		</g>
	</g>
</g>
</svg>
