<?xml version="1.0" encoding="utf-8"?>
<!-- Generator: Adobe Illustrator 27.9.0, SVG Export Plug-In . SVG Version: 6.00 Build 0)  -->
<svg version="1.1" id="圖層_1" xmlns="http://www.w3.org/2000/svg" xmlns:xlink="http://www.w3.org/1999/xlink" x="0px" y="0px"
	 viewBox="0 0 18 18" style="enable-background:new 0 0 18 18;" xml:space="preserve">
<style type="text/css">
	.st0{fill-rule:evenodd;clip-rule:evenodd;fill:#FFFFFF;}
</style>
<g>
	<path class="st0" d="M12.8,0c1.5,0,2.7,1.2,2.7,2.7c0,0.7-0.3,1.4-0.8,1.9c-0.9,0.9-2.5,1-3.5,0.2L7.4,7.9c0.4,0.7,0.4,1.6,0,2.3
		l3.9,3c1.1-0.9,2.6-0.8,3.6,0.2c0.5,0.5,0.8,1.1,0.8,1.9c0,1.5-1.2,2.7-2.7,2.7c-1.5,0-2.7-1.2-2.7-2.7c0-0.4,0.1-0.8,0.3-1.1
		l-3.9-3c-0.5,0.4-1.1,0.6-1.7,0.6c-1.5,0-2.7-1.2-2.7-2.7c0-1.5,1.2-2.7,2.7-2.7c0.6,0,1.2,0.2,1.6,0.6l3.8-3.2
		c-0.2-0.4-0.3-0.8-0.3-1.2C10.2,1.2,11.4,0,12.8,0L12.8,0z"/>
</g>
</svg>
