<?xml version="1.0" encoding="utf-8"?>
<!-- Generator: Adobe Illustrator 27.9.0, SVG Export Plug-In . SVG Version: 6.00 Build 0)  -->
<svg version="1.1" id="圖層_1" xmlns="http://www.w3.org/2000/svg" xmlns:xlink="http://www.w3.org/1999/xlink" x="0px" y="0px"
	 viewBox="0 0 18 18" style="enable-background:new 0 0 18 18;" xml:space="preserve">
<style type="text/css">
	.st0{fill:#FFFFFF;}
</style>
<g>
	<path class="st0" d="M0,5.4c0-2,1.6-3.6,3.6-3.6h9.6c2,0,3.6,1.6,3.6,3.6v3c0,0.3-0.3,0.6-0.6,0.6c-0.3,0-0.6-0.3-0.6-0.6V6.6H1.2
		v4.8c0,1.3,1.1,2.4,2.4,2.4h6.6c0.3,0,0.6,0.3,0.6,0.6S10.5,15,10.2,15H3.6c-2,0-3.6-1.6-3.6-3.6V5.4z"/>
	<path class="st0" d="M12.3,10.5c1.1-1.1,3-1.1,4.1,0c1,1,1.1,2.5,0.4,3.7l1,1c0.2,0.2,0.2,0.6,0,0.8c-0.2,0.2-0.6,0.2-0.8,0l-1-1
		c-1.1,0.7-2.7,0.6-3.7-0.4C11.1,13.5,11.1,11.6,12.3,10.5z"/>
	<path class="st0" d="M2.4,8.4c0-0.3,0.3-0.6,0.6-0.6h2.4C5.7,7.8,6,8.1,6,8.4C6,8.7,5.7,9,5.4,9H3C2.7,9,2.4,8.7,2.4,8.4z"/>
</g>
</svg>
